<mxfile host="Electron" agent="Mozilla/5.0 (Windows NT 10.0; Win64; x64) AppleWebKit/537.36 (KHTML, like Gecko) draw.io/24.7.8 Chrome/128.0.6613.36 Electron/32.0.1 Safari/537.36" version="24.7.8">
  <diagram name="Page-1" id="e56a1550-8fbb-45ad-956c-1786394a9013">
    <mxGraphModel dx="1954" dy="2208" grid="1" gridSize="10" guides="1" tooltips="1" connect="1" arrows="1" fold="1" page="1" pageScale="1" pageWidth="1100" pageHeight="850" background="none" math="0" shadow="0">
      <root>
        <mxCell id="0" />
        <mxCell id="1" parent="0" />
        <mxCell id="6c_6b6at9WufshhHbo5P-86" value="admin (operator)" style="swimlane;childLayout=stackLayout;horizontal=1;startSize=50;horizontalStack=0;rounded=1;fontSize=14;fontStyle=1;strokeWidth=2;resizeParent=0;resizeLast=1;shadow=0;dashed=0;align=center;arcSize=4;whiteSpace=wrap;html=1;strokeColor=#909090;verticalAlign=middle;fontFamily=Helvetica;fontColor=#1A1A1A;labelBackgroundColor=none;fillColor=#F5AB50;" parent="1" vertex="1">
          <mxGeometry x="340" y="-120" width="160" height="200" as="geometry" />
        </mxCell>
        <mxCell id="6c_6b6at9WufshhHbo5P-87" value="&lt;u style=&quot;font-size: 14px;&quot;&gt;employee No&lt;/u&gt;&lt;div style=&quot;font-size: 14px;&quot;&gt;&lt;div style=&quot;font-size: 14px;&quot;&gt;national code&lt;/div&gt;name&lt;div style=&quot;font-size: 14px;&quot;&gt;last_name&lt;/div&gt;&lt;div style=&quot;font-size: 14px;&quot;&gt;email&lt;/div&gt;&lt;div style=&quot;font-size: 14px;&quot;&gt;pf_picture (opt)&lt;br style=&quot;font-size: 14px;&quot;&gt;&lt;/div&gt;&lt;div style=&quot;font-size: 14px;&quot;&gt;username&lt;/div&gt;&lt;div style=&quot;font-size: 14px;&quot;&gt;password&lt;/div&gt;&lt;div style=&quot;font-size: 14px;&quot;&gt;&lt;br style=&quot;font-size: 14px;&quot;&gt;&lt;/div&gt;&lt;/div&gt;" style="align=left;strokeColor=none;fillColor=none;spacingLeft=4;fontSize=14;verticalAlign=top;resizable=0;rotatable=0;part=1;html=1;rounded=1;fontFamily=Helvetica;fontColor=#1A1A1A;fontStyle=1;labelBackgroundColor=none;" parent="6c_6b6at9WufshhHbo5P-86" vertex="1">
          <mxGeometry y="50" width="160" height="150" as="geometry" />
        </mxCell>
        <mxCell id="6c_6b6at9WufshhHbo5P-88" value="student" style="swimlane;childLayout=stackLayout;horizontal=1;startSize=50;horizontalStack=0;rounded=1;fontSize=14;fontStyle=1;strokeWidth=2;resizeParent=0;resizeLast=1;shadow=0;dashed=0;align=center;arcSize=4;whiteSpace=wrap;html=1;strokeColor=#909090;verticalAlign=middle;fontFamily=Helvetica;fontColor=#1A1A1A;labelBackgroundColor=none;fillColor=#F5AB50;" parent="1" vertex="1">
          <mxGeometry x="350" y="550" width="160" height="240" as="geometry" />
        </mxCell>
        <mxCell id="6c_6b6at9WufshhHbo5P-89" value="&lt;u style=&quot;font-size: 14px;&quot;&gt;student No&lt;/u&gt;&lt;div style=&quot;font-size: 14px;&quot;&gt;&lt;div style=&quot;font-size: 14px;&quot;&gt;national code&lt;/div&gt;name&lt;div style=&quot;font-size: 14px;&quot;&gt;last_name&lt;/div&gt;&lt;div style=&quot;font-size: 14px;&quot;&gt;email&lt;/div&gt;&lt;div style=&quot;font-size: 14px;&quot;&gt;username&lt;/div&gt;&lt;div style=&quot;font-size: 14px;&quot;&gt;password&lt;/div&gt;&lt;div style=&quot;font-size: 14px;&quot;&gt;token_password&lt;u style=&quot;font-size: 14px;&quot;&gt;&lt;br style=&quot;font-size: 14px;&quot;&gt;&lt;/u&gt;&lt;div style=&quot;font-size: 14px;&quot;&gt;credit&lt;/div&gt;&lt;/div&gt;&lt;/div&gt;" style="align=left;strokeColor=none;fillColor=none;spacingLeft=4;fontSize=14;verticalAlign=top;resizable=0;rotatable=0;part=1;html=1;rounded=1;fontFamily=Helvetica;fontColor=#1A1A1A;fontStyle=1;labelBackgroundColor=none;" parent="6c_6b6at9WufshhHbo5P-88" vertex="1">
          <mxGeometry y="50" width="160" height="190" as="geometry" />
        </mxCell>
        <mxCell id="6c_6b6at9WufshhHbo5P-90" value="&lt;span style=&quot;font-size: 14px; text-wrap: nowrap;&quot;&gt;residence_place&lt;/span&gt;" style="swimlane;childLayout=stackLayout;horizontal=1;startSize=50;horizontalStack=0;rounded=1;fontSize=14;fontStyle=1;strokeWidth=2;resizeParent=0;resizeLast=1;shadow=0;dashed=0;align=center;arcSize=4;whiteSpace=wrap;html=1;strokeColor=#909090;verticalAlign=middle;fontFamily=Helvetica;fontColor=#1A1A1A;labelBackgroundColor=none;fillColor=#F5AB50;" parent="1" vertex="1">
          <mxGeometry x="350" y="240" width="160" height="80" as="geometry" />
        </mxCell>
        <mxCell id="6c_6b6at9WufshhHbo5P-91" value="&lt;span style=&quot;text-wrap: wrap; text-decoration-line: underline; font-size: 14px;&quot;&gt;type&lt;/span&gt;" style="align=left;strokeColor=none;fillColor=none;spacingLeft=4;fontSize=14;verticalAlign=top;resizable=0;rotatable=0;part=1;html=1;rounded=1;fontFamily=Helvetica;fontColor=#1A1A1A;fontStyle=1;labelBackgroundColor=none;" parent="6c_6b6at9WufshhHbo5P-90" vertex="1">
          <mxGeometry y="50" width="160" height="30" as="geometry" />
        </mxCell>
        <mxCell id="6c_6b6at9WufshhHbo5P-92" value="&lt;span style=&quot;font-size: 14px; text-wrap: nowrap;&quot;&gt;food&lt;/span&gt;" style="swimlane;childLayout=stackLayout;horizontal=1;startSize=50;horizontalStack=0;rounded=1;fontSize=14;fontStyle=1;strokeWidth=2;resizeParent=0;resizeLast=1;shadow=0;dashed=0;align=center;arcSize=4;whiteSpace=wrap;html=1;strokeColor=#909090;verticalAlign=middle;fontFamily=Helvetica;fontColor=#1A1A1A;labelBackgroundColor=none;fillColor=#F5AB50;" parent="1" vertex="1">
          <mxGeometry x="1120" y="90" width="160" height="95" as="geometry" />
        </mxCell>
        <mxCell id="6c_6b6at9WufshhHbo5P-93" value="&lt;u style=&quot;font-size: 14px;&quot;&gt;id&lt;/u&gt;&lt;div style=&quot;font-size: 14px;&quot;&gt;name&lt;/div&gt;" style="align=left;strokeColor=none;fillColor=none;spacingLeft=4;fontSize=14;verticalAlign=top;resizable=0;rotatable=0;part=1;html=1;rounded=1;fontFamily=Helvetica;fontColor=#1A1A1A;fontStyle=1;labelBackgroundColor=none;" parent="6c_6b6at9WufshhHbo5P-92" vertex="1">
          <mxGeometry y="50" width="160" height="45" as="geometry" />
        </mxCell>
        <mxCell id="6c_6b6at9WufshhHbo5P-94" value="meal" style="swimlane;childLayout=stackLayout;horizontal=1;startSize=50;horizontalStack=0;rounded=1;fontSize=14;fontStyle=1;strokeWidth=2;resizeParent=0;resizeLast=1;shadow=0;dashed=0;align=center;arcSize=4;whiteSpace=wrap;html=1;strokeColor=#909090;verticalAlign=middle;fontFamily=Helvetica;fontColor=#1A1A1A;labelBackgroundColor=none;fillColor=#F5AB50;" parent="1" vertex="1">
          <mxGeometry x="1460" y="90" width="160" height="115" as="geometry" />
        </mxCell>
        <mxCell id="6c_6b6at9WufshhHbo5P-95" value="&lt;u style=&quot;font-size: 14px;&quot;&gt;id&lt;/u&gt;&lt;div style=&quot;font-size: 14px;&quot;&gt;&lt;div style=&quot;font-size: 14px;&quot;&gt;price&lt;/div&gt;&lt;/div&gt;" style="align=left;strokeColor=none;fillColor=none;spacingLeft=4;fontSize=14;verticalAlign=top;resizable=0;rotatable=0;part=1;html=1;rounded=1;fontFamily=Helvetica;fontColor=#1A1A1A;fontStyle=1;labelBackgroundColor=none;" parent="6c_6b6at9WufshhHbo5P-94" vertex="1">
          <mxGeometry y="50" width="160" height="65" as="geometry" />
        </mxCell>
        <mxCell id="6c_6b6at9WufshhHbo5P-96" value="&lt;font style=&quot;font-size: 14px;&quot;&gt;reservation&lt;/font&gt;" style="swimlane;childLayout=stackLayout;horizontal=1;startSize=50;horizontalStack=0;rounded=1;fontSize=14;fontStyle=1;strokeWidth=2;resizeParent=0;resizeLast=1;shadow=0;dashed=0;align=center;arcSize=4;whiteSpace=wrap;html=1;strokeColor=#909090;verticalAlign=middle;fontFamily=Helvetica;fontColor=#1A1A1A;labelBackgroundColor=none;fillColor=#F5AB50;" parent="1" vertex="1">
          <mxGeometry x="770" y="540" width="160" height="120" as="geometry" />
        </mxCell>
        <mxCell id="6c_6b6at9WufshhHbo5P-97" value="&lt;u style=&quot;font-size: 14px;&quot;&gt;id&lt;/u&gt;&lt;div style=&quot;font-size: 14px;&quot;&gt;reserved_for_date&lt;/div&gt;&lt;div style=&quot;font-size: 14px;&quot;&gt;registered_date&lt;/div&gt;" style="align=left;strokeColor=none;fillColor=none;spacingLeft=4;fontSize=14;verticalAlign=top;resizable=0;rotatable=0;part=1;html=1;rounded=1;fontFamily=Helvetica;fontColor=#1A1A1A;fontStyle=1;labelBackgroundColor=none;" parent="6c_6b6at9WufshhHbo5P-96" vertex="1">
          <mxGeometry y="50" width="160" height="70" as="geometry" />
        </mxCell>
        <mxCell id="6c_6b6at9WufshhHbo5P-98" value="register" style="shape=rhombus;perimeter=rhombusPerimeter;whiteSpace=wrap;html=1;align=center;rounded=1;strokeColor=#909090;verticalAlign=middle;fontFamily=Helvetica;fontSize=14;fontColor=#1A1A1A;fontStyle=1;labelBackgroundColor=none;fillColor=#F5AB50;" parent="1" vertex="1">
          <mxGeometry x="580" y="570" width="120" height="60" as="geometry" />
        </mxCell>
        <mxCell id="6c_6b6at9WufshhHbo5P-99" value="" style="shape=link;html=1;rounded=0;fontFamily=Helvetica;fontSize=14;fontColor=default;fontStyle=1;labelBackgroundColor=none;exitX=1;exitY=0.5;exitDx=0;exitDy=0;entryX=0;entryY=0.5;entryDx=0;entryDy=0;strokeColor=#182E3E;" parent="1" source="6c_6b6at9WufshhHbo5P-98" target="6c_6b6at9WufshhHbo5P-96" edge="1">
          <mxGeometry width="100" relative="1" as="geometry">
            <mxPoint x="680" y="380" as="sourcePoint" />
            <mxPoint x="780" y="380" as="targetPoint" />
          </mxGeometry>
        </mxCell>
        <mxCell id="6c_6b6at9WufshhHbo5P-100" value="" style="endArrow=classic;html=1;rounded=0;fontFamily=Helvetica;fontSize=14;fontColor=default;fontStyle=1;labelBackgroundColor=none;entryX=1;entryY=0;entryDx=0;entryDy=0;exitX=0;exitY=0.5;exitDx=0;exitDy=0;strokeColor=#182E3E;" parent="1" source="6c_6b6at9WufshhHbo5P-98" target="6c_6b6at9WufshhHbo5P-89" edge="1">
          <mxGeometry width="50" height="50" relative="1" as="geometry">
            <mxPoint x="710" y="510" as="sourcePoint" />
            <mxPoint x="760" y="460" as="targetPoint" />
          </mxGeometry>
        </mxCell>
        <mxCell id="6c_6b6at9WufshhHbo5P-104" value="stu_residence" style="shape=rhombus;perimeter=rhombusPerimeter;whiteSpace=wrap;html=1;align=center;rounded=1;strokeColor=#909090;verticalAlign=middle;fontFamily=Helvetica;fontSize=14;fontColor=#1A1A1A;fontStyle=1;labelBackgroundColor=none;fillColor=#F5AB50;" parent="1" vertex="1">
          <mxGeometry x="370" y="395" width="120" height="60" as="geometry" />
        </mxCell>
        <mxCell id="6c_6b6at9WufshhHbo5P-105" value="" style="endArrow=classic;html=1;rounded=0;fontFamily=Helvetica;fontSize=14;fontColor=default;fontStyle=1;labelBackgroundColor=none;exitX=0.5;exitY=0;exitDx=0;exitDy=0;entryX=0.5;entryY=1;entryDx=0;entryDy=0;strokeColor=#182E3E;" parent="1" source="6c_6b6at9WufshhHbo5P-104" target="6c_6b6at9WufshhHbo5P-91" edge="1">
          <mxGeometry width="50" height="50" relative="1" as="geometry">
            <mxPoint x="490" y="750" as="sourcePoint" />
            <mxPoint x="390" y="350" as="targetPoint" />
          </mxGeometry>
        </mxCell>
        <mxCell id="6c_6b6at9WufshhHbo5P-106" value="" style="shape=link;html=1;rounded=0;fontFamily=Helvetica;fontSize=14;fontColor=default;fontStyle=1;labelBackgroundColor=none;exitX=0.5;exitY=0;exitDx=0;exitDy=0;entryX=0.5;entryY=1;entryDx=0;entryDy=0;strokeColor=#182E3E;" parent="1" source="6c_6b6at9WufshhHbo5P-88" target="6c_6b6at9WufshhHbo5P-104" edge="1">
          <mxGeometry width="100" relative="1" as="geometry">
            <mxPoint x="460" y="730" as="sourcePoint" />
            <mxPoint x="440" y="470" as="targetPoint" />
          </mxGeometry>
        </mxCell>
        <mxCell id="6c_6b6at9WufshhHbo5P-115" value="foodplan_item" style="swimlane;childLayout=stackLayout;horizontal=1;startSize=50;horizontalStack=0;rounded=1;fontSize=14;fontStyle=1;strokeWidth=2;resizeParent=0;resizeLast=1;shadow=0;dashed=0;align=center;arcSize=4;whiteSpace=wrap;html=1;strokeColor=#909090;verticalAlign=middle;fontFamily=Helvetica;fontColor=#1A1A1A;labelBackgroundColor=none;fillColor=#F5AB50;" parent="1" vertex="1">
          <mxGeometry x="1270" y="550" width="160" height="80" as="geometry" />
        </mxCell>
        <mxCell id="6c_6b6at9WufshhHbo5P-116" value="&lt;u style=&quot;font-size: 14px;&quot;&gt;id&lt;/u&gt;" style="align=left;strokeColor=none;fillColor=none;spacingLeft=4;fontSize=14;verticalAlign=top;resizable=0;rotatable=0;part=1;html=1;rounded=1;fontFamily=Helvetica;fontColor=#1A1A1A;fontStyle=1;labelBackgroundColor=none;" parent="6c_6b6at9WufshhHbo5P-115" vertex="1">
          <mxGeometry y="50" width="160" height="30" as="geometry" />
        </mxCell>
        <mxCell id="6c_6b6at9WufshhHbo5P-117" value="day" style="swimlane;childLayout=stackLayout;horizontal=1;startSize=50;horizontalStack=0;rounded=1;fontSize=14;fontStyle=1;strokeWidth=2;resizeParent=0;resizeLast=1;shadow=0;dashed=0;align=center;arcSize=4;whiteSpace=wrap;html=1;strokeColor=#909090;verticalAlign=middle;fontFamily=Helvetica;fontColor=#1A1A1A;labelBackgroundColor=none;fillColor=#F5AB50;" parent="1" vertex="1">
          <mxGeometry x="1770" y="90" width="160" height="90" as="geometry" />
        </mxCell>
        <mxCell id="6c_6b6at9WufshhHbo5P-118" value="&lt;u style=&quot;font-size: 14px;&quot;&gt;name&lt;/u&gt;" style="align=left;strokeColor=none;fillColor=none;spacingLeft=4;fontSize=14;verticalAlign=top;resizable=0;rotatable=0;part=1;html=1;rounded=1;fontFamily=Helvetica;fontColor=#1A1A1A;fontStyle=1;labelBackgroundColor=none;" parent="6c_6b6at9WufshhHbo5P-117" vertex="1">
          <mxGeometry y="50" width="160" height="40" as="geometry" />
        </mxCell>
        <mxCell id="6c_6b6at9WufshhHbo5P-119" value="day_fpi" style="shape=rhombus;perimeter=rhombusPerimeter;whiteSpace=wrap;html=1;align=center;rounded=1;strokeColor=#909090;verticalAlign=middle;fontFamily=Helvetica;fontSize=14;fontColor=#1A1A1A;fontStyle=1;labelBackgroundColor=none;fillColor=#F5AB50;" parent="1" vertex="1">
          <mxGeometry x="1790" y="260" width="120" height="60" as="geometry" />
        </mxCell>
        <mxCell id="6c_6b6at9WufshhHbo5P-120" value="" style="endArrow=classic;html=1;rounded=0;fontFamily=Helvetica;fontSize=14;fontColor=default;fontStyle=1;labelBackgroundColor=none;entryX=0.5;entryY=1;entryDx=0;entryDy=0;exitX=0.5;exitY=0;exitDx=0;exitDy=0;edgeStyle=orthogonalEdgeStyle;strokeColor=#182E3E;" parent="1" source="6c_6b6at9WufshhHbo5P-119" target="6c_6b6at9WufshhHbo5P-118" edge="1">
          <mxGeometry width="50" height="50" relative="1" as="geometry">
            <mxPoint x="1170" y="270" as="sourcePoint" />
            <mxPoint x="1220" y="220" as="targetPoint" />
          </mxGeometry>
        </mxCell>
        <mxCell id="6c_6b6at9WufshhHbo5P-121" value="" style="shape=link;html=1;rounded=0;fontFamily=Helvetica;fontSize=14;fontColor=default;fontStyle=1;labelBackgroundColor=none;entryX=0.75;entryY=0;entryDx=0;entryDy=0;exitX=0.5;exitY=1;exitDx=0;exitDy=0;edgeStyle=orthogonalEdgeStyle;strokeColor=#182E3E;" parent="1" source="6c_6b6at9WufshhHbo5P-119" target="6c_6b6at9WufshhHbo5P-115" edge="1">
          <mxGeometry width="100" relative="1" as="geometry">
            <mxPoint x="940" y="300" as="sourcePoint" />
            <mxPoint x="1040" y="300" as="targetPoint" />
          </mxGeometry>
        </mxCell>
        <mxCell id="6c_6b6at9WufshhHbo5P-128" value="meal_fpi" style="shape=rhombus;perimeter=rhombusPerimeter;whiteSpace=wrap;html=1;align=center;rounded=1;strokeColor=#909090;verticalAlign=middle;fontFamily=Helvetica;fontSize=14;fontColor=#1A1A1A;fontStyle=1;labelBackgroundColor=none;fillColor=#F5AB50;" parent="1" vertex="1">
          <mxGeometry x="1480" y="270" width="120" height="60" as="geometry" />
        </mxCell>
        <mxCell id="6c_6b6at9WufshhHbo5P-129" value="food_fpi" style="shape=rhombus;perimeter=rhombusPerimeter;whiteSpace=wrap;html=1;align=center;rounded=1;strokeColor=#909090;verticalAlign=middle;fontFamily=Helvetica;fontSize=14;fontColor=#1A1A1A;fontStyle=1;labelBackgroundColor=none;fillColor=#F5AB50;" parent="1" vertex="1">
          <mxGeometry x="1140" y="280" width="120" height="60" as="geometry" />
        </mxCell>
        <mxCell id="6c_6b6at9WufshhHbo5P-130" value="" style="endArrow=classic;html=1;rounded=0;fontFamily=Helvetica;fontSize=14;fontColor=default;fontStyle=1;labelBackgroundColor=none;exitX=0.5;exitY=0;exitDx=0;exitDy=0;entryX=0.5;entryY=1;entryDx=0;entryDy=0;strokeColor=#182E3E;" parent="1" source="6c_6b6at9WufshhHbo5P-129" target="6c_6b6at9WufshhHbo5P-93" edge="1">
          <mxGeometry width="50" height="50" relative="1" as="geometry">
            <mxPoint x="950" y="100" as="sourcePoint" />
            <mxPoint x="1000" y="50" as="targetPoint" />
          </mxGeometry>
        </mxCell>
        <mxCell id="6c_6b6at9WufshhHbo5P-131" value="" style="endArrow=classic;html=1;rounded=0;fontFamily=Helvetica;fontSize=14;fontColor=default;fontStyle=1;labelBackgroundColor=none;entryX=0.5;entryY=1;entryDx=0;entryDy=0;exitX=0.5;exitY=0;exitDx=0;exitDy=0;strokeColor=#182E3E;" parent="1" source="6c_6b6at9WufshhHbo5P-128" target="6c_6b6at9WufshhHbo5P-95" edge="1">
          <mxGeometry width="50" height="50" relative="1" as="geometry">
            <mxPoint x="1000" y="20" as="sourcePoint" />
            <mxPoint x="1050" y="-30" as="targetPoint" />
          </mxGeometry>
        </mxCell>
        <mxCell id="6c_6b6at9WufshhHbo5P-133" value="" style="shape=link;html=1;rounded=0;fontFamily=Helvetica;fontSize=14;fontColor=default;fontStyle=1;labelBackgroundColor=none;entryX=0.5;entryY=0;entryDx=0;entryDy=0;exitX=0.5;exitY=1;exitDx=0;exitDy=0;edgeStyle=orthogonalEdgeStyle;strokeColor=#182E3E;" parent="1" source="6c_6b6at9WufshhHbo5P-128" target="6c_6b6at9WufshhHbo5P-115" edge="1">
          <mxGeometry width="100" relative="1" as="geometry">
            <mxPoint x="920" y="200" as="sourcePoint" />
            <mxPoint x="1020" y="200" as="targetPoint" />
            <Array as="points">
              <mxPoint x="1540" y="380" />
              <mxPoint x="1350" y="380" />
            </Array>
          </mxGeometry>
        </mxCell>
        <mxCell id="6c_6b6at9WufshhHbo5P-134" value="" style="shape=link;html=1;rounded=0;fontFamily=Helvetica;fontSize=14;fontColor=default;fontStyle=1;labelBackgroundColor=none;entryX=0.25;entryY=0;entryDx=0;entryDy=0;exitX=0.5;exitY=1;exitDx=0;exitDy=0;edgeStyle=orthogonalEdgeStyle;strokeColor=#182E3E;" parent="1" source="6c_6b6at9WufshhHbo5P-129" target="6c_6b6at9WufshhHbo5P-115" edge="1">
          <mxGeometry width="100" relative="1" as="geometry">
            <mxPoint x="920" y="200" as="sourcePoint" />
            <mxPoint x="1020" y="200" as="targetPoint" />
            <Array as="points">
              <mxPoint x="1200" y="470" />
              <mxPoint x="1310" y="470" />
            </Array>
          </mxGeometry>
        </mxCell>
        <mxCell id="UbWyDAXkAl9kBC1085o6-6" value="res_fpi" style="shape=rhombus;perimeter=rhombusPerimeter;whiteSpace=wrap;html=1;align=center;rounded=1;strokeColor=#909090;verticalAlign=middle;fontFamily=Helvetica;fontSize=14;fontColor=#1A1A1A;fontStyle=1;labelBackgroundColor=none;fillColor=#F5AB50;" parent="1" vertex="1">
          <mxGeometry x="1040" y="570" width="120" height="60" as="geometry" />
        </mxCell>
        <mxCell id="UbWyDAXkAl9kBC1085o6-7" value="" style="endArrow=classic;html=1;rounded=0;fontFamily=Helvetica;fontSize=14;fontColor=default;fontStyle=1;labelBackgroundColor=none;entryX=0;entryY=0;entryDx=0;entryDy=0;exitX=1;exitY=0.5;exitDx=0;exitDy=0;strokeColor=#182E3E;" parent="1" source="UbWyDAXkAl9kBC1085o6-6" target="6c_6b6at9WufshhHbo5P-116" edge="1">
          <mxGeometry width="50" height="50" relative="1" as="geometry">
            <mxPoint x="1260" y="650" as="sourcePoint" />
            <mxPoint x="1310" y="600" as="targetPoint" />
          </mxGeometry>
        </mxCell>
        <mxCell id="UbWyDAXkAl9kBC1085o6-8" value="" style="shape=link;html=1;rounded=0;fontFamily=Helvetica;fontSize=14;fontColor=default;fontStyle=1;labelBackgroundColor=none;entryX=0;entryY=0.5;entryDx=0;entryDy=0;exitX=1;exitY=0.5;exitDx=0;exitDy=0;strokeColor=#182E3E;" parent="1" source="6c_6b6at9WufshhHbo5P-96" target="UbWyDAXkAl9kBC1085o6-6" edge="1">
          <mxGeometry width="100" relative="1" as="geometry">
            <mxPoint x="890" y="460" as="sourcePoint" />
            <mxPoint x="990" y="460" as="targetPoint" />
          </mxGeometry>
        </mxCell>
        <mxCell id="TPkjLOi4IjHDYwZSrLuA-5" value="food_type" style="swimlane;childLayout=stackLayout;horizontal=1;startSize=50;horizontalStack=0;rounded=1;fontSize=14;fontStyle=1;strokeWidth=2;resizeParent=0;resizeLast=1;shadow=0;dashed=0;align=center;arcSize=4;whiteSpace=wrap;html=1;strokeColor=#909090;verticalAlign=middle;fontFamily=Helvetica;fontColor=#1A1A1A;labelBackgroundColor=none;fillColor=#F5AB50;" parent="1" vertex="1">
          <mxGeometry x="1120" y="-170" width="160" height="80" as="geometry" />
        </mxCell>
        <mxCell id="TPkjLOi4IjHDYwZSrLuA-6" value="&lt;u style=&quot;font-size: 14px;&quot;&gt;name&lt;/u&gt;" style="align=left;strokeColor=none;fillColor=none;spacingLeft=4;fontSize=14;verticalAlign=top;resizable=0;rotatable=0;part=1;html=1;rounded=1;shadow=0;dashed=0;strokeWidth=2;arcSize=4;fontFamily=Helvetica;fontColor=#1A1A1A;fontStyle=1;labelBackgroundColor=none;" parent="TPkjLOi4IjHDYwZSrLuA-5" vertex="1">
          <mxGeometry y="50" width="160" height="30" as="geometry" />
        </mxCell>
        <mxCell id="TPkjLOi4IjHDYwZSrLuA-8" value="food_fd-type" style="shape=rhombus;perimeter=rhombusPerimeter;whiteSpace=wrap;html=1;align=center;rounded=1;strokeColor=#909090;verticalAlign=middle;fontFamily=Helvetica;fontSize=14;fontColor=#1A1A1A;fontStyle=1;labelBackgroundColor=none;fillColor=#F5AB50;" parent="1" vertex="1">
          <mxGeometry x="1140" y="-30" width="120" height="60" as="geometry" />
        </mxCell>
        <mxCell id="TPkjLOi4IjHDYwZSrLuA-9" value="" style="endArrow=classic;html=1;rounded=0;fontFamily=Helvetica;fontSize=14;fontColor=default;fontStyle=1;labelBackgroundColor=none;entryX=0.5;entryY=1;entryDx=0;entryDy=0;exitX=0.5;exitY=0;exitDx=0;exitDy=0;strokeColor=#182E3E;" parent="1" source="TPkjLOi4IjHDYwZSrLuA-8" target="TPkjLOi4IjHDYwZSrLuA-6" edge="1">
          <mxGeometry width="50" height="50" relative="1" as="geometry">
            <mxPoint x="740" y="-110" as="sourcePoint" />
            <mxPoint x="790" y="-160" as="targetPoint" />
          </mxGeometry>
        </mxCell>
        <mxCell id="TPkjLOi4IjHDYwZSrLuA-10" value="" style="shape=link;html=1;rounded=0;fontFamily=Helvetica;fontSize=14;fontColor=default;fontStyle=1;labelBackgroundColor=none;entryX=0.5;entryY=0;entryDx=0;entryDy=0;exitX=0.5;exitY=1;exitDx=0;exitDy=0;strokeColor=#182E3E;" parent="1" source="TPkjLOi4IjHDYwZSrLuA-8" target="6c_6b6at9WufshhHbo5P-92" edge="1">
          <mxGeometry width="100" relative="1" as="geometry">
            <mxPoint x="680" y="10" as="sourcePoint" />
            <mxPoint x="780" y="10" as="targetPoint" />
          </mxGeometry>
        </mxCell>
        <mxCell id="TPkjLOi4IjHDYwZSrLuA-11" value="meal_type" style="swimlane;childLayout=stackLayout;horizontal=1;startSize=50;horizontalStack=0;rounded=1;fontSize=14;fontStyle=1;strokeWidth=2;resizeParent=0;resizeLast=1;shadow=0;dashed=0;align=center;arcSize=4;whiteSpace=wrap;html=1;strokeColor=#909090;verticalAlign=middle;fontFamily=Helvetica;fontColor=#1A1A1A;labelBackgroundColor=none;fillColor=#F5AB50;" parent="1" vertex="1">
          <mxGeometry x="1460" y="-170" width="160" height="80" as="geometry" />
        </mxCell>
        <mxCell id="TPkjLOi4IjHDYwZSrLuA-12" value="&lt;u style=&quot;font-size: 14px;&quot;&gt;name&lt;/u&gt;" style="align=left;strokeColor=none;fillColor=none;spacingLeft=4;fontSize=14;verticalAlign=top;resizable=0;rotatable=0;part=1;html=1;rounded=1;fontFamily=Helvetica;fontColor=#1A1A1A;fontStyle=1;labelBackgroundColor=none;" parent="TPkjLOi4IjHDYwZSrLuA-11" vertex="1">
          <mxGeometry y="50" width="160" height="30" as="geometry" />
        </mxCell>
        <mxCell id="TPkjLOi4IjHDYwZSrLuA-13" value="meal_ml-type" style="shape=rhombus;perimeter=rhombusPerimeter;whiteSpace=wrap;html=1;align=center;rounded=1;strokeColor=#909090;verticalAlign=middle;fontFamily=Helvetica;fontSize=14;fontColor=#1A1A1A;fontStyle=1;labelBackgroundColor=none;fillColor=#F5AB50;" parent="1" vertex="1">
          <mxGeometry x="1480" y="-30" width="120" height="60" as="geometry" />
        </mxCell>
        <mxCell id="TPkjLOi4IjHDYwZSrLuA-14" value="" style="endArrow=classic;html=1;rounded=0;fontFamily=Helvetica;fontSize=14;fontColor=default;fontStyle=1;labelBackgroundColor=none;entryX=0.5;entryY=1;entryDx=0;entryDy=0;exitX=0.5;exitY=0;exitDx=0;exitDy=0;strokeColor=#182E3E;" parent="1" source="TPkjLOi4IjHDYwZSrLuA-13" target="TPkjLOi4IjHDYwZSrLuA-12" edge="1">
          <mxGeometry width="50" height="50" relative="1" as="geometry">
            <mxPoint x="910" y="40" as="sourcePoint" />
            <mxPoint x="960" y="-10" as="targetPoint" />
          </mxGeometry>
        </mxCell>
        <mxCell id="TPkjLOi4IjHDYwZSrLuA-17" value="" style="endArrow=classic;html=1;rounded=0;fontFamily=Helvetica;fontSize=14;fontColor=default;fontStyle=1;labelBackgroundColor=none;exitX=0.5;exitY=1;exitDx=0;exitDy=0;entryX=0.5;entryY=0;entryDx=0;entryDy=0;strokeColor=#182E3E;" parent="1" source="TPkjLOi4IjHDYwZSrLuA-13" target="6c_6b6at9WufshhHbo5P-94" edge="1">
          <mxGeometry relative="1" as="geometry">
            <mxPoint x="700" y="-20" as="sourcePoint" />
            <mxPoint x="800" y="-20" as="targetPoint" />
          </mxGeometry>
        </mxCell>
        <mxCell id="TPkjLOi4IjHDYwZSrLuA-18" value="total" style="edgeLabel;resizable=0;html=1;;align=center;verticalAlign=middle;rounded=1;strokeColor=#909090;fontFamily=Helvetica;fontSize=14;fontColor=#1A1A1A;fontStyle=1;labelBackgroundColor=none;fillColor=#F5AB50;" parent="TPkjLOi4IjHDYwZSrLuA-17" connectable="0" vertex="1">
          <mxGeometry relative="1" as="geometry" />
        </mxCell>
        <mxCell id="5l4N1rTcr7N160FiMUOC-4" value="&lt;span style=&quot;font-size: 14px;&quot;&gt;credit_purchase&lt;/span&gt;" style="swimlane;childLayout=stackLayout;horizontal=1;startSize=50;horizontalStack=0;rounded=1;fontSize=14;fontStyle=1;strokeWidth=2;resizeParent=0;resizeLast=1;shadow=0;dashed=0;align=center;arcSize=4;whiteSpace=wrap;html=1;strokeColor=#909090;verticalAlign=middle;fontFamily=Helvetica;fontColor=#1A1A1A;labelBackgroundColor=none;fillColor=#F5AB50;" parent="1" vertex="1">
          <mxGeometry x="350" y="1040" width="160" height="120" as="geometry" />
        </mxCell>
        <mxCell id="5l4N1rTcr7N160FiMUOC-5" value="&lt;u style=&quot;font-size: 14px;&quot;&gt;id&lt;/u&gt;&lt;div style=&quot;font-size: 14px;&quot;&gt;amount&lt;/div&gt;&lt;div style=&quot;font-size: 14px;&quot;&gt;date&lt;/div&gt;" style="align=left;strokeColor=none;fillColor=none;spacingLeft=4;fontSize=14;verticalAlign=top;resizable=0;rotatable=0;part=1;html=1;rounded=1;shadow=0;dashed=0;strokeWidth=2;arcSize=4;fontFamily=Helvetica;fontColor=#1A1A1A;fontStyle=1;labelBackgroundColor=none;" parent="5l4N1rTcr7N160FiMUOC-4" vertex="1">
          <mxGeometry y="50" width="160" height="70" as="geometry" />
        </mxCell>
        <mxCell id="7e9GdRw_sYl6TuvqIxfU-3" value="does" style="shape=rhombus;perimeter=rhombusPerimeter;whiteSpace=wrap;html=1;align=center;strokeColor=#909090;fontColor=#1A1A1A;fillColor=#F5AB50;rounded=1;fontSize=14;fontStyle=1" parent="1" vertex="1">
          <mxGeometry x="370" y="900" width="120" height="60" as="geometry" />
        </mxCell>
        <mxCell id="7e9GdRw_sYl6TuvqIxfU-4" value="" style="endArrow=classic;html=1;rounded=0;strokeColor=#182E3E;fontColor=#1A1A1A;entryX=0.5;entryY=1;entryDx=0;entryDy=0;exitX=0.5;exitY=0;exitDx=0;exitDy=0;" parent="1" source="7e9GdRw_sYl6TuvqIxfU-3" target="6c_6b6at9WufshhHbo5P-89" edge="1">
          <mxGeometry width="50" height="50" relative="1" as="geometry">
            <mxPoint x="160" y="990" as="sourcePoint" />
            <mxPoint x="210" y="940" as="targetPoint" />
          </mxGeometry>
        </mxCell>
        <mxCell id="7e9GdRw_sYl6TuvqIxfU-5" value="" style="shape=link;html=1;rounded=0;strokeColor=#182E3E;fontColor=#1A1A1A;entryX=0.5;entryY=0;entryDx=0;entryDy=0;exitX=0.5;exitY=1;exitDx=0;exitDy=0;" parent="1" source="7e9GdRw_sYl6TuvqIxfU-3" target="5l4N1rTcr7N160FiMUOC-4" edge="1">
          <mxGeometry width="100" relative="1" as="geometry">
            <mxPoint x="110" y="890" as="sourcePoint" />
            <mxPoint x="210" y="890" as="targetPoint" />
          </mxGeometry>
        </mxCell>
      </root>
    </mxGraphModel>
  </diagram>
</mxfile>
